<mxfile host="app.diagrams.net" modified="2020-10-18T01:53:55.019Z" agent="5.0 (Windows NT 10.0; Win64; x64) AppleWebKit/537.36 (KHTML, like Gecko) Chrome/86.0.4240.75 Safari/537.36" etag="TEJ8ZJTYaDkePw1kR05q" version="13.8.0" type="github">
  <diagram name="Page-1" id="efa7a0a1-bf9b-a30e-e6df-94a7791c09e9">
    <mxGraphModel dx="1108" dy="482" grid="1" gridSize="10" guides="1" tooltips="1" connect="1" arrows="1" fold="1" page="1" pageScale="1" pageWidth="826" pageHeight="1169" background="#ffffff" math="0" shadow="0">
      <root>
        <mxCell id="0" />
        <mxCell id="1" parent="0" />
        <mxCell id="9nVttLgA1WMZ91mnEe1L-120" value="" style="rounded=0;whiteSpace=wrap;html=1;" parent="1" vertex="1">
          <mxGeometry x="448" y="876" width="60" height="30" as="geometry" />
        </mxCell>
        <mxCell id="9nVttLgA1WMZ91mnEe1L-121" value="Zip" style="rounded=0;whiteSpace=wrap;html=1;" parent="1" vertex="1">
          <mxGeometry x="698" y="876" width="50" height="30" as="geometry" />
        </mxCell>
        <mxCell id="9nVttLgA1WMZ91mnEe1L-122" value="Street" style="whiteSpace=wrap;html=1;" parent="1" vertex="1">
          <mxGeometry x="508" y="876" width="60" height="30" as="geometry" />
        </mxCell>
        <mxCell id="9nVttLgA1WMZ91mnEe1L-127" value="&lt;u&gt;HotelID&lt;/u&gt;" style="text;html=1;strokeColor=none;fillColor=none;align=center;verticalAlign=middle;whiteSpace=wrap;rounded=0;" parent="1" vertex="1">
          <mxGeometry x="456" y="881" width="40" height="20" as="geometry" />
        </mxCell>
        <mxCell id="9nVttLgA1WMZ91mnEe1L-128" value="Country" style="rounded=0;whiteSpace=wrap;html=1;" parent="1" vertex="1">
          <mxGeometry x="568" y="876" width="60" height="30" as="geometry" />
        </mxCell>
        <mxCell id="9nVttLgA1WMZ91mnEe1L-129" value="State" style="rounded=0;whiteSpace=wrap;html=1;" parent="1" vertex="1">
          <mxGeometry x="628" y="876" width="70" height="30" as="geometry" />
        </mxCell>
        <mxCell id="9nVttLgA1WMZ91mnEe1L-130" value="&lt;font face=&quot;Times New Roman&quot;&gt;&lt;b&gt;HOTEL&lt;/b&gt;&lt;/font&gt;" style="text;html=1;strokeColor=none;fillColor=none;align=center;verticalAlign=middle;whiteSpace=wrap;rounded=0;" parent="1" vertex="1">
          <mxGeometry x="698" y="854" width="40" height="20" as="geometry" />
        </mxCell>
        <mxCell id="nEgtMDDTX5-OxtlX7NQl-19" style="edgeStyle=orthogonalEdgeStyle;rounded=0;orthogonalLoop=1;jettySize=auto;html=1;exitX=0;exitY=0.5;exitDx=0;exitDy=0;entryX=0.5;entryY=1;entryDx=0;entryDy=0;" edge="1" parent="1" source="9nVttLgA1WMZ91mnEe1L-131" target="9nVttLgA1WMZ91mnEe1L-120">
          <mxGeometry relative="1" as="geometry" />
        </mxCell>
        <mxCell id="9nVttLgA1WMZ91mnEe1L-131" value="" style="rounded=0;whiteSpace=wrap;html=1;" parent="1" vertex="1">
          <mxGeometry x="293" y="950" width="67" height="30" as="geometry" />
        </mxCell>
        <mxCell id="9nVttLgA1WMZ91mnEe1L-132" value="" style="rounded=0;whiteSpace=wrap;html=1;" parent="1" vertex="1">
          <mxGeometry x="360" y="950" width="67" height="30" as="geometry" />
        </mxCell>
        <mxCell id="9nVttLgA1WMZ91mnEe1L-133" value="Price" style="rounded=0;whiteSpace=wrap;html=1;" parent="1" vertex="1">
          <mxGeometry x="427" y="950" width="67" height="30" as="geometry" />
        </mxCell>
        <mxCell id="9nVttLgA1WMZ91mnEe1L-134" value="Floor" style="rounded=0;whiteSpace=wrap;html=1;" parent="1" vertex="1">
          <mxGeometry x="494" y="950" width="67" height="30" as="geometry" />
        </mxCell>
        <mxCell id="9nVttLgA1WMZ91mnEe1L-135" value="RType" style="rounded=0;whiteSpace=wrap;html=1;" parent="1" vertex="1">
          <mxGeometry x="695" y="950" width="67" height="30" as="geometry" />
        </mxCell>
        <mxCell id="9nVttLgA1WMZ91mnEe1L-136" value="Capacity" style="rounded=0;whiteSpace=wrap;html=1;" parent="1" vertex="1">
          <mxGeometry x="628" y="950" width="67" height="30" as="geometry" />
        </mxCell>
        <mxCell id="9nVttLgA1WMZ91mnEe1L-137" value="Description" style="rounded=0;whiteSpace=wrap;html=1;" parent="1" vertex="1">
          <mxGeometry x="561" y="950" width="67" height="30" as="geometry" />
        </mxCell>
        <mxCell id="9nVttLgA1WMZ91mnEe1L-140" value="&lt;u&gt;HotelID&lt;/u&gt;" style="text;html=1;strokeColor=none;fillColor=none;align=center;verticalAlign=middle;whiteSpace=wrap;rounded=0;" parent="1" vertex="1">
          <mxGeometry x="306.5" y="955" width="40" height="20" as="geometry" />
        </mxCell>
        <mxCell id="9nVttLgA1WMZ91mnEe1L-141" value="&lt;u&gt;RNumber&lt;/u&gt;" style="text;html=1;strokeColor=none;fillColor=none;align=center;verticalAlign=middle;whiteSpace=wrap;rounded=0;" parent="1" vertex="1">
          <mxGeometry x="375" y="955" width="40" height="20" as="geometry" />
        </mxCell>
        <mxCell id="9nVttLgA1WMZ91mnEe1L-143" value="&lt;font face=&quot;Times New Roman&quot;&gt;&lt;b&gt;ROOM&lt;/b&gt;&lt;/font&gt;" style="text;html=1;align=center;verticalAlign=middle;resizable=0;points=[];autosize=1;" parent="1" vertex="1">
          <mxGeometry x="682" y="930" width="50" height="20" as="geometry" />
        </mxCell>
        <mxCell id="9nVttLgA1WMZ91mnEe1L-144" value="&lt;u&gt;CID&lt;/u&gt;" style="rounded=0;whiteSpace=wrap;html=1;" parent="1" vertex="1">
          <mxGeometry x="90" y="489" width="50" height="25" as="geometry" />
        </mxCell>
        <mxCell id="9nVttLgA1WMZ91mnEe1L-145" value="PhoneNo" style="rounded=0;whiteSpace=wrap;html=1;" parent="1" vertex="1">
          <mxGeometry x="140" y="489" width="60" height="25" as="geometry" />
        </mxCell>
        <mxCell id="9nVttLgA1WMZ91mnEe1L-146" value="Name" style="rounded=0;whiteSpace=wrap;html=1;" parent="1" vertex="1">
          <mxGeometry x="200" y="489" width="50" height="25" as="geometry" />
        </mxCell>
        <mxCell id="9nVttLgA1WMZ91mnEe1L-147" value="Address" style="rounded=0;whiteSpace=wrap;html=1;" parent="1" vertex="1">
          <mxGeometry x="250" y="489" width="50" height="25" as="geometry" />
        </mxCell>
        <mxCell id="9nVttLgA1WMZ91mnEe1L-148" value="Email" style="rounded=0;whiteSpace=wrap;html=1;" parent="1" vertex="1">
          <mxGeometry x="300" y="489" width="50" height="25" as="geometry" />
        </mxCell>
        <mxCell id="9nVttLgA1WMZ91mnEe1L-149" value="&lt;u&gt;CNumber&lt;/u&gt;" style="rounded=0;whiteSpace=wrap;html=1;" parent="1" vertex="1">
          <mxGeometry x="23" y="556" width="70" height="30" as="geometry" />
        </mxCell>
        <mxCell id="9nVttLgA1WMZ91mnEe1L-150" value="BAddress" style="rounded=0;whiteSpace=wrap;html=1;" parent="1" vertex="1">
          <mxGeometry x="93" y="556" width="70" height="30" as="geometry" />
        </mxCell>
        <mxCell id="9nVttLgA1WMZ91mnEe1L-151" value="CType" style="rounded=0;whiteSpace=wrap;html=1;" parent="1" vertex="1">
          <mxGeometry x="163" y="556" width="60" height="30" as="geometry" />
        </mxCell>
        <mxCell id="9nVttLgA1WMZ91mnEe1L-152" value="Code" style="rounded=0;whiteSpace=wrap;html=1;" parent="1" vertex="1">
          <mxGeometry x="223" y="556" width="60" height="30" as="geometry" />
        </mxCell>
        <mxCell id="9nVttLgA1WMZ91mnEe1L-153" value="Expdate" style="rounded=0;whiteSpace=wrap;html=1;" parent="1" vertex="1">
          <mxGeometry x="283" y="556" width="60" height="30" as="geometry" />
        </mxCell>
        <mxCell id="9nVttLgA1WMZ91mnEe1L-154" value="Name" style="rounded=0;whiteSpace=wrap;html=1;" parent="1" vertex="1">
          <mxGeometry x="343" y="556" width="60" height="30" as="geometry" />
        </mxCell>
        <mxCell id="9nVttLgA1WMZ91mnEe1L-156" value="&lt;u&gt;InvoiceNumber&lt;/u&gt;" style="rounded=0;whiteSpace=wrap;html=1;" parent="1" vertex="1">
          <mxGeometry x="100" y="625" width="90" height="30" as="geometry" />
        </mxCell>
        <mxCell id="9nVttLgA1WMZ91mnEe1L-157" value="RDate" style="rounded=0;whiteSpace=wrap;html=1;" parent="1" vertex="1">
          <mxGeometry x="190" y="625" width="60" height="30" as="geometry" />
        </mxCell>
        <mxCell id="9nVttLgA1WMZ91mnEe1L-158" value="&lt;font face=&quot;Times New Roman&quot;&gt;&lt;b&gt;CUSTOMER&lt;/b&gt;&lt;/font&gt;" style="text;html=1;align=center;verticalAlign=middle;resizable=0;points=[];autosize=1;" parent="1" vertex="1">
          <mxGeometry x="261" y="464" width="80" height="20" as="geometry" />
        </mxCell>
        <mxCell id="9nVttLgA1WMZ91mnEe1L-159" value="&lt;font face=&quot;Times New Roman&quot;&gt;&lt;b&gt;CREDIT CARD&lt;/b&gt;&lt;/font&gt;" style="text;html=1;align=center;verticalAlign=middle;resizable=0;points=[];autosize=1;" parent="1" vertex="1">
          <mxGeometry x="715.5" y="557" width="100" height="20" as="geometry" />
        </mxCell>
        <mxCell id="9nVttLgA1WMZ91mnEe1L-160" value="&lt;font face=&quot;Times New Roman&quot;&gt;&lt;b&gt;RESERVATION&lt;/b&gt;&lt;/font&gt;" style="text;html=1;align=center;verticalAlign=middle;resizable=0;points=[];autosize=1;" parent="1" vertex="1">
          <mxGeometry x="140" y="605" width="100" height="20" as="geometry" />
        </mxCell>
        <mxCell id="9nVttLgA1WMZ91mnEe1L-161" value="&lt;u&gt;InDate&lt;/u&gt;" style="rounded=0;whiteSpace=wrap;html=1;" parent="1" vertex="1">
          <mxGeometry x="121" y="800" width="70" height="20" as="geometry" />
        </mxCell>
        <mxCell id="9nVttLgA1WMZ91mnEe1L-162" value="OutDate" style="rounded=0;whiteSpace=wrap;html=1;" parent="1" vertex="1">
          <mxGeometry x="191" y="800" width="70" height="20" as="geometry" />
        </mxCell>
        <mxCell id="9nVttLgA1WMZ91mnEe1L-163" value="&lt;font face=&quot;Times New Roman&quot;&gt;&lt;b&gt;ROOM_RES&lt;/b&gt;&lt;/font&gt;" style="text;html=1;align=center;verticalAlign=middle;resizable=0;points=[];autosize=1;" parent="1" vertex="1">
          <mxGeometry x="160" y="780" width="80" height="20" as="geometry" />
        </mxCell>
        <mxCell id="9nVttLgA1WMZ91mnEe1L-165" value="&lt;u&gt;SType&lt;/u&gt;" style="rounded=0;whiteSpace=wrap;html=1;" parent="1" vertex="1">
          <mxGeometry x="791" y="791" width="55" height="30" as="geometry" />
        </mxCell>
        <mxCell id="9nVttLgA1WMZ91mnEe1L-177" style="edgeStyle=orthogonalEdgeStyle;rounded=0;orthogonalLoop=1;jettySize=auto;html=1;exitX=0.5;exitY=1;exitDx=0;exitDy=0;entryX=0.75;entryY=0;entryDx=0;entryDy=0;" parent="1" source="9nVttLgA1WMZ91mnEe1L-167" target="9nVttLgA1WMZ91mnEe1L-120" edge="1">
          <mxGeometry relative="1" as="geometry">
            <mxPoint x="396" y="870" as="targetPoint" />
          </mxGeometry>
        </mxCell>
        <mxCell id="9nVttLgA1WMZ91mnEe1L-167" value="" style="rounded=0;whiteSpace=wrap;html=1;" parent="1" vertex="1">
          <mxGeometry x="731" y="791" width="60" height="30" as="geometry" />
        </mxCell>
        <mxCell id="9nVttLgA1WMZ91mnEe1L-168" value="Price" style="rounded=0;whiteSpace=wrap;html=1;" parent="1" vertex="1">
          <mxGeometry x="846" y="791" width="55" height="30" as="geometry" />
        </mxCell>
        <mxCell id="9nVttLgA1WMZ91mnEe1L-169" value="&lt;u&gt;HotelID&lt;/u&gt;" style="text;html=1;strokeColor=none;fillColor=none;align=center;verticalAlign=middle;whiteSpace=wrap;rounded=0;" parent="1" vertex="1">
          <mxGeometry x="737.5" y="796" width="40" height="20" as="geometry" />
        </mxCell>
        <mxCell id="9nVttLgA1WMZ91mnEe1L-176" style="edgeStyle=orthogonalEdgeStyle;rounded=0;orthogonalLoop=1;jettySize=auto;html=1;exitX=0;exitY=0.5;exitDx=0;exitDy=0;entryX=0.5;entryY=0;entryDx=0;entryDy=0;" parent="1" source="9nVttLgA1WMZ91mnEe1L-170" target="9nVttLgA1WMZ91mnEe1L-120" edge="1">
          <mxGeometry relative="1" as="geometry">
            <Array as="points">
              <mxPoint x="771" y="730" />
              <mxPoint x="430" y="730" />
              <mxPoint x="430" y="830" />
              <mxPoint x="478" y="830" />
            </Array>
          </mxGeometry>
        </mxCell>
        <mxCell id="9nVttLgA1WMZ91mnEe1L-170" value="&lt;u&gt;HotelID&lt;/u&gt;" style="rounded=0;whiteSpace=wrap;html=1;" parent="1" vertex="1">
          <mxGeometry x="771" y="710" width="60" height="30" as="geometry" />
        </mxCell>
        <mxCell id="9nVttLgA1WMZ91mnEe1L-171" value="&lt;u&gt;BType&lt;/u&gt;" style="rounded=0;whiteSpace=wrap;html=1;" parent="1" vertex="1">
          <mxGeometry x="831.5" y="710" width="60" height="30" as="geometry" />
        </mxCell>
        <mxCell id="9nVttLgA1WMZ91mnEe1L-172" value="Description" style="rounded=0;whiteSpace=wrap;html=1;" parent="1" vertex="1">
          <mxGeometry x="892" y="710" width="75" height="30" as="geometry" />
        </mxCell>
        <mxCell id="9nVttLgA1WMZ91mnEe1L-173" value="BPrice" style="rounded=0;whiteSpace=wrap;html=1;" parent="1" vertex="1">
          <mxGeometry x="967" y="710" width="60" height="30" as="geometry" />
        </mxCell>
        <mxCell id="9nVttLgA1WMZ91mnEe1L-179" value="&lt;font face=&quot;Times New Roman&quot;&gt;&lt;b&gt;BREAKFAST&lt;/b&gt;&lt;/font&gt;" style="text;html=1;align=center;verticalAlign=middle;resizable=0;points=[];autosize=1;" parent="1" vertex="1">
          <mxGeometry x="937" y="690" width="90" height="20" as="geometry" />
        </mxCell>
        <mxCell id="9nVttLgA1WMZ91mnEe1L-180" value="&lt;font face=&quot;Times New Roman&quot;&gt;&lt;b&gt;SERVICE&lt;/b&gt;&lt;/font&gt;" style="text;html=1;align=center;verticalAlign=middle;resizable=0;points=[];autosize=1;" parent="1" vertex="1">
          <mxGeometry x="831" y="770" width="70" height="20" as="geometry" />
        </mxCell>
        <mxCell id="9nVttLgA1WMZ91mnEe1L-189" style="edgeStyle=orthogonalEdgeStyle;rounded=0;orthogonalLoop=1;jettySize=auto;html=1;entryX=0.5;entryY=0;entryDx=0;entryDy=0;" parent="1" target="9nVttLgA1WMZ91mnEe1L-144" edge="1">
          <mxGeometry relative="1" as="geometry">
            <mxPoint x="850" y="430" as="sourcePoint" />
            <Array as="points">
              <mxPoint x="850" y="481" />
              <mxPoint x="850" y="430" />
              <mxPoint x="115" y="430" />
            </Array>
          </mxGeometry>
        </mxCell>
        <mxCell id="9nVttLgA1WMZ91mnEe1L-183" value="CID" style="rounded=0;whiteSpace=wrap;html=1;" parent="1" vertex="1">
          <mxGeometry x="829.5" y="481" width="50" height="25" as="geometry" />
        </mxCell>
        <mxCell id="9nVttLgA1WMZ91mnEe1L-184" value="Rating" style="rounded=0;whiteSpace=wrap;html=1;" parent="1" vertex="1">
          <mxGeometry x="880" y="481" width="50" height="25" as="geometry" />
        </mxCell>
        <mxCell id="9nVttLgA1WMZ91mnEe1L-185" value="Text" style="rounded=0;whiteSpace=wrap;html=1;" parent="1" vertex="1">
          <mxGeometry x="930" y="481" width="50" height="25" as="geometry" />
        </mxCell>
        <mxCell id="9nVttLgA1WMZ91mnEe1L-186" value="HotelID" style="rounded=0;whiteSpace=wrap;html=1;" parent="1" vertex="1">
          <mxGeometry x="980" y="481" width="50" height="25" as="geometry" />
        </mxCell>
        <mxCell id="9nVttLgA1WMZ91mnEe1L-187" value="BType" style="rounded=0;whiteSpace=wrap;html=1;" parent="1" vertex="1">
          <mxGeometry x="1030" y="481" width="50" height="25" as="geometry" />
        </mxCell>
        <mxCell id="9nVttLgA1WMZ91mnEe1L-188" value="&lt;u&gt;RID&lt;/u&gt;" style="rounded=0;whiteSpace=wrap;html=1;" parent="1" vertex="1">
          <mxGeometry x="779.5" y="481" width="50" height="25" as="geometry" />
        </mxCell>
        <mxCell id="9nVttLgA1WMZ91mnEe1L-191" value="" style="endArrow=none;html=1;entryX=0.5;entryY=1;entryDx=0;entryDy=0;" parent="1" target="9nVttLgA1WMZ91mnEe1L-186" edge="1">
          <mxGeometry width="50" height="50" relative="1" as="geometry">
            <mxPoint x="1005" y="522" as="sourcePoint" />
            <mxPoint x="760" y="522" as="targetPoint" />
          </mxGeometry>
        </mxCell>
        <mxCell id="9nVttLgA1WMZ91mnEe1L-193" value="" style="endArrow=none;html=1;entryX=0.5;entryY=1;entryDx=0;entryDy=0;" parent="1" target="9nVttLgA1WMZ91mnEe1L-187" edge="1">
          <mxGeometry width="50" height="50" relative="1" as="geometry">
            <mxPoint x="1055" y="522" as="sourcePoint" />
            <mxPoint x="1015" y="516" as="targetPoint" />
            <Array as="points" />
          </mxGeometry>
        </mxCell>
        <mxCell id="9nVttLgA1WMZ91mnEe1L-194" value="" style="endArrow=none;html=1;" parent="1" edge="1">
          <mxGeometry width="50" height="50" relative="1" as="geometry">
            <mxPoint x="1005" y="522" as="sourcePoint" />
            <mxPoint x="1055" y="522" as="targetPoint" />
            <Array as="points" />
          </mxGeometry>
        </mxCell>
        <mxCell id="9nVttLgA1WMZ91mnEe1L-195" value="" style="endArrow=none;html=1;" parent="1" edge="1">
          <mxGeometry width="50" height="50" relative="1" as="geometry">
            <mxPoint x="802" y="710" as="sourcePoint" />
            <mxPoint x="802" y="690" as="targetPoint" />
          </mxGeometry>
        </mxCell>
        <mxCell id="9nVttLgA1WMZ91mnEe1L-196" value="" style="endArrow=none;html=1;exitX=0.5;exitY=0;exitDx=0;exitDy=0;" parent="1" source="9nVttLgA1WMZ91mnEe1L-171" edge="1">
          <mxGeometry width="50" height="50" relative="1" as="geometry">
            <mxPoint x="847" y="730" as="sourcePoint" />
            <mxPoint x="862" y="690" as="targetPoint" />
          </mxGeometry>
        </mxCell>
        <mxCell id="9nVttLgA1WMZ91mnEe1L-197" value="" style="endArrow=none;html=1;" parent="1" edge="1">
          <mxGeometry width="50" height="50" relative="1" as="geometry">
            <mxPoint x="802" y="690" as="sourcePoint" />
            <mxPoint x="862" y="690" as="targetPoint" />
            <Array as="points">
              <mxPoint x="837" y="690" />
            </Array>
          </mxGeometry>
        </mxCell>
        <mxCell id="9nVttLgA1WMZ91mnEe1L-198" style="edgeStyle=orthogonalEdgeStyle;rounded=0;orthogonalLoop=1;jettySize=auto;html=1;" parent="1" edge="1">
          <mxGeometry relative="1" as="geometry">
            <mxPoint x="1030" y="525" as="sourcePoint" />
            <mxPoint x="830" y="690" as="targetPoint" />
            <Array as="points">
              <mxPoint x="1030" y="655" />
              <mxPoint x="830" y="655" />
            </Array>
          </mxGeometry>
        </mxCell>
        <mxCell id="nEgtMDDTX5-OxtlX7NQl-12" style="edgeStyle=orthogonalEdgeStyle;rounded=0;orthogonalLoop=1;jettySize=auto;html=1;exitX=0.5;exitY=0;exitDx=0;exitDy=0;entryX=0.75;entryY=0;entryDx=0;entryDy=0;" edge="1" parent="1" source="9nVttLgA1WMZ91mnEe1L-199" target="9nVttLgA1WMZ91mnEe1L-144">
          <mxGeometry relative="1" as="geometry">
            <Array as="points">
              <mxPoint x="771" y="450" />
              <mxPoint x="128" y="450" />
            </Array>
          </mxGeometry>
        </mxCell>
        <mxCell id="9nVttLgA1WMZ91mnEe1L-199" value="CID" style="rounded=0;whiteSpace=wrap;html=1;" parent="1" vertex="1">
          <mxGeometry x="745.5" y="546" width="50" height="25" as="geometry" />
        </mxCell>
        <mxCell id="9nVttLgA1WMZ91mnEe1L-200" value="Rating" style="rounded=0;whiteSpace=wrap;html=1;" parent="1" vertex="1">
          <mxGeometry x="796" y="546" width="50" height="25" as="geometry" />
        </mxCell>
        <mxCell id="9nVttLgA1WMZ91mnEe1L-201" value="Text" style="rounded=0;whiteSpace=wrap;html=1;" parent="1" vertex="1">
          <mxGeometry x="846" y="546" width="50" height="25" as="geometry" />
        </mxCell>
        <mxCell id="9nVttLgA1WMZ91mnEe1L-202" value="HotelID" style="rounded=0;whiteSpace=wrap;html=1;" parent="1" vertex="1">
          <mxGeometry x="896" y="546" width="50" height="25" as="geometry" />
        </mxCell>
        <mxCell id="9nVttLgA1WMZ91mnEe1L-203" value="SType" style="rounded=0;whiteSpace=wrap;html=1;" parent="1" vertex="1">
          <mxGeometry x="946" y="546" width="50" height="25" as="geometry" />
        </mxCell>
        <mxCell id="9nVttLgA1WMZ91mnEe1L-204" value="&lt;u&gt;RID&lt;/u&gt;" style="rounded=0;whiteSpace=wrap;html=1;" parent="1" vertex="1">
          <mxGeometry x="695.5" y="546" width="50" height="25" as="geometry" />
        </mxCell>
        <mxCell id="9nVttLgA1WMZ91mnEe1L-208" value="" style="endArrow=none;html=1;" parent="1" edge="1">
          <mxGeometry width="50" height="50" relative="1" as="geometry">
            <mxPoint x="756" y="776" as="sourcePoint" />
            <mxPoint x="816" y="776" as="targetPoint" />
            <Array as="points">
              <mxPoint x="791" y="776" />
            </Array>
          </mxGeometry>
        </mxCell>
        <mxCell id="9nVttLgA1WMZ91mnEe1L-209" style="edgeStyle=orthogonalEdgeStyle;rounded=0;orthogonalLoop=1;jettySize=auto;html=1;" parent="1" edge="1">
          <mxGeometry relative="1" as="geometry">
            <mxPoint x="950" y="593" as="sourcePoint" />
            <mxPoint x="790" y="780" as="targetPoint" />
            <Array as="points">
              <mxPoint x="950" y="640" />
              <mxPoint x="740" y="640" />
              <mxPoint x="740" y="750" />
              <mxPoint x="790" y="750" />
            </Array>
          </mxGeometry>
        </mxCell>
        <mxCell id="9nVttLgA1WMZ91mnEe1L-211" value="" style="endArrow=none;html=1;" parent="1" edge="1">
          <mxGeometry width="50" height="50" relative="1" as="geometry">
            <mxPoint x="920" y="594" as="sourcePoint" />
            <mxPoint x="972" y="594" as="targetPoint" />
            <Array as="points" />
          </mxGeometry>
        </mxCell>
        <mxCell id="9nVttLgA1WMZ91mnEe1L-212" value="" style="endArrow=none;html=1;entryX=0.5;entryY=1;entryDx=0;entryDy=0;" parent="1" target="9nVttLgA1WMZ91mnEe1L-203" edge="1">
          <mxGeometry width="50" height="50" relative="1" as="geometry">
            <mxPoint x="971" y="594" as="sourcePoint" />
            <mxPoint x="1054" y="534" as="targetPoint" />
          </mxGeometry>
        </mxCell>
        <mxCell id="9nVttLgA1WMZ91mnEe1L-213" value="" style="endArrow=none;html=1;entryX=0.5;entryY=1;entryDx=0;entryDy=0;" parent="1" target="9nVttLgA1WMZ91mnEe1L-202" edge="1">
          <mxGeometry width="50" height="50" relative="1" as="geometry">
            <mxPoint x="921" y="594" as="sourcePoint" />
            <mxPoint x="1054" y="524" as="targetPoint" />
          </mxGeometry>
        </mxCell>
        <mxCell id="9nVttLgA1WMZ91mnEe1L-214" value="" style="endArrow=none;html=1;" parent="1" edge="1">
          <mxGeometry width="50" height="50" relative="1" as="geometry">
            <mxPoint x="756" y="775" as="sourcePoint" />
            <mxPoint x="756" y="791" as="targetPoint" />
          </mxGeometry>
        </mxCell>
        <mxCell id="9nVttLgA1WMZ91mnEe1L-215" value="" style="endArrow=none;html=1;" parent="1" edge="1">
          <mxGeometry width="50" height="50" relative="1" as="geometry">
            <mxPoint x="816" y="774" as="sourcePoint" />
            <mxPoint x="816" y="790" as="targetPoint" />
          </mxGeometry>
        </mxCell>
        <mxCell id="nEgtMDDTX5-OxtlX7NQl-1" value="&lt;font face=&quot;Times New Roman&quot;&gt;&lt;b&gt;CREDIT CARD&lt;/b&gt;&lt;/font&gt;" style="text;html=1;align=center;verticalAlign=middle;resizable=0;points=[];autosize=1;" vertex="1" parent="1">
          <mxGeometry x="238" y="533" width="100" height="20" as="geometry" />
        </mxCell>
        <mxCell id="nEgtMDDTX5-OxtlX7NQl-2" value="&lt;font face=&quot;Times New Roman&quot;&gt;&lt;b&gt;BREVIEW&lt;/b&gt;&lt;/font&gt;" style="text;html=1;align=center;verticalAlign=middle;resizable=0;points=[];autosize=1;" vertex="1" parent="1">
          <mxGeometry x="855" y="454" width="70" height="20" as="geometry" />
        </mxCell>
        <mxCell id="nEgtMDDTX5-OxtlX7NQl-3" value="&lt;b&gt;&lt;font face=&quot;Times New Roman&quot;&gt;SREVIEW&lt;/font&gt;&lt;/b&gt;" style="text;html=1;align=center;verticalAlign=middle;resizable=0;points=[];autosize=1;" vertex="1" parent="1">
          <mxGeometry x="909" y="516" width="70" height="20" as="geometry" />
        </mxCell>
        <mxCell id="nEgtMDDTX5-OxtlX7NQl-13" style="edgeStyle=orthogonalEdgeStyle;rounded=0;orthogonalLoop=1;jettySize=auto;html=1;exitX=0.5;exitY=0;exitDx=0;exitDy=0;entryX=0.5;entryY=1;entryDx=0;entryDy=0;" edge="1" parent="1" source="nEgtMDDTX5-OxtlX7NQl-4" target="9nVttLgA1WMZ91mnEe1L-144">
          <mxGeometry relative="1" as="geometry">
            <Array as="points">
              <mxPoint x="490" y="530" />
              <mxPoint x="115" y="530" />
            </Array>
          </mxGeometry>
        </mxCell>
        <mxCell id="nEgtMDDTX5-OxtlX7NQl-4" value="CID" style="rounded=0;whiteSpace=wrap;html=1;" vertex="1" parent="1">
          <mxGeometry x="465" y="600" width="50" height="25" as="geometry" />
        </mxCell>
        <mxCell id="nEgtMDDTX5-OxtlX7NQl-5" value="Rating" style="rounded=0;whiteSpace=wrap;html=1;" vertex="1" parent="1">
          <mxGeometry x="515.5" y="600" width="50" height="25" as="geometry" />
        </mxCell>
        <mxCell id="nEgtMDDTX5-OxtlX7NQl-6" value="Text" style="rounded=0;whiteSpace=wrap;html=1;" vertex="1" parent="1">
          <mxGeometry x="565.5" y="600" width="50" height="25" as="geometry" />
        </mxCell>
        <mxCell id="nEgtMDDTX5-OxtlX7NQl-7" value="HotelID" style="rounded=0;whiteSpace=wrap;html=1;" vertex="1" parent="1">
          <mxGeometry x="615.5" y="600" width="50" height="25" as="geometry" />
        </mxCell>
        <mxCell id="nEgtMDDTX5-OxtlX7NQl-8" value="RNumber" style="rounded=0;whiteSpace=wrap;html=1;" vertex="1" parent="1">
          <mxGeometry x="665.5" y="600" width="64.5" height="25" as="geometry" />
        </mxCell>
        <mxCell id="nEgtMDDTX5-OxtlX7NQl-9" value="&lt;u&gt;RID&lt;/u&gt;" style="rounded=0;whiteSpace=wrap;html=1;" vertex="1" parent="1">
          <mxGeometry x="415" y="600" width="50" height="25" as="geometry" />
        </mxCell>
        <mxCell id="nEgtMDDTX5-OxtlX7NQl-14" value="" style="endArrow=none;html=1;entryX=0.5;entryY=1;entryDx=0;entryDy=0;" edge="1" parent="1" target="nEgtMDDTX5-OxtlX7NQl-7">
          <mxGeometry width="50" height="50" relative="1" as="geometry">
            <mxPoint x="641" y="640" as="sourcePoint" />
            <mxPoint x="670" y="620" as="targetPoint" />
          </mxGeometry>
        </mxCell>
        <mxCell id="nEgtMDDTX5-OxtlX7NQl-15" value="" style="endArrow=none;html=1;entryX=0.5;entryY=1;entryDx=0;entryDy=0;" edge="1" parent="1" target="nEgtMDDTX5-OxtlX7NQl-8">
          <mxGeometry width="50" height="50" relative="1" as="geometry">
            <mxPoint x="698" y="640" as="sourcePoint" />
            <mxPoint x="650.5" y="635" as="targetPoint" />
          </mxGeometry>
        </mxCell>
        <mxCell id="nEgtMDDTX5-OxtlX7NQl-16" value="" style="endArrow=none;html=1;" edge="1" parent="1">
          <mxGeometry width="50" height="50" relative="1" as="geometry">
            <mxPoint x="640" y="640" as="sourcePoint" />
            <mxPoint x="698" y="640" as="targetPoint" />
          </mxGeometry>
        </mxCell>
        <mxCell id="nEgtMDDTX5-OxtlX7NQl-20" value="" style="endArrow=none;html=1;exitX=0.5;exitY=0;exitDx=0;exitDy=0;" edge="1" parent="1" source="9nVttLgA1WMZ91mnEe1L-131">
          <mxGeometry width="50" height="50" relative="1" as="geometry">
            <mxPoint x="550" y="830" as="sourcePoint" />
            <mxPoint x="327" y="920" as="targetPoint" />
          </mxGeometry>
        </mxCell>
        <mxCell id="nEgtMDDTX5-OxtlX7NQl-21" value="" style="endArrow=none;html=1;exitX=0.5;exitY=0;exitDx=0;exitDy=0;" edge="1" parent="1">
          <mxGeometry width="50" height="50" relative="1" as="geometry">
            <mxPoint x="393.5" y="949" as="sourcePoint" />
            <mxPoint x="394" y="919" as="targetPoint" />
          </mxGeometry>
        </mxCell>
        <mxCell id="nEgtMDDTX5-OxtlX7NQl-22" value="" style="endArrow=none;html=1;" edge="1" parent="1">
          <mxGeometry width="50" height="50" relative="1" as="geometry">
            <mxPoint x="326" y="920" as="sourcePoint" />
            <mxPoint x="396" y="920" as="targetPoint" />
          </mxGeometry>
        </mxCell>
        <mxCell id="nEgtMDDTX5-OxtlX7NQl-23" style="edgeStyle=orthogonalEdgeStyle;rounded=0;orthogonalLoop=1;jettySize=auto;html=1;" edge="1" parent="1">
          <mxGeometry relative="1" as="geometry">
            <mxPoint x="670" y="640" as="sourcePoint" />
            <mxPoint x="350" y="920" as="targetPoint" />
            <Array as="points">
              <mxPoint x="670" y="760" />
              <mxPoint x="350" y="760" />
              <mxPoint x="350" y="790" />
            </Array>
          </mxGeometry>
        </mxCell>
        <mxCell id="nEgtMDDTX5-OxtlX7NQl-24" value="&lt;font face=&quot;Times New Roman&quot;&gt;&lt;b&gt;RREVIEW&lt;/b&gt;&lt;/font&gt;" style="text;html=1;align=center;verticalAlign=middle;resizable=0;points=[];autosize=1;" vertex="1" parent="1">
          <mxGeometry x="655" y="575" width="70" height="20" as="geometry" />
        </mxCell>
        <mxCell id="nEgtMDDTX5-OxtlX7NQl-27" style="edgeStyle=orthogonalEdgeStyle;rounded=0;orthogonalLoop=1;jettySize=auto;html=1;exitX=0.5;exitY=1;exitDx=0;exitDy=0;entryX=0.75;entryY=1;entryDx=0;entryDy=0;" edge="1" parent="1" source="nEgtMDDTX5-OxtlX7NQl-25" target="9nVttLgA1WMZ91mnEe1L-120">
          <mxGeometry relative="1" as="geometry">
            <Array as="points">
              <mxPoint x="821" y="920" />
              <mxPoint x="493" y="920" />
            </Array>
          </mxGeometry>
        </mxCell>
        <mxCell id="nEgtMDDTX5-OxtlX7NQl-25" value="&lt;u&gt;HotelID&lt;/u&gt;" style="rounded=0;whiteSpace=wrap;html=1;" vertex="1" parent="1">
          <mxGeometry x="788.5" y="874" width="64" height="29" as="geometry" />
        </mxCell>
        <mxCell id="nEgtMDDTX5-OxtlX7NQl-26" value="&lt;u&gt;PhoneNo&lt;/u&gt;" style="rounded=0;whiteSpace=wrap;html=1;" vertex="1" parent="1">
          <mxGeometry x="853" y="874" width="64" height="29" as="geometry" />
        </mxCell>
        <mxCell id="nEgtMDDTX5-OxtlX7NQl-28" value="&lt;font face=&quot;Times New Roman&quot;&gt;&lt;b&gt;HOTEL_PHONE&lt;/b&gt;&lt;/font&gt;" style="text;html=1;align=center;verticalAlign=middle;resizable=0;points=[];autosize=1;" vertex="1" parent="1">
          <mxGeometry x="816" y="855" width="110" height="20" as="geometry" />
        </mxCell>
        <mxCell id="nEgtMDDTX5-OxtlX7NQl-38" style="edgeStyle=orthogonalEdgeStyle;rounded=0;orthogonalLoop=1;jettySize=auto;html=1;exitX=0;exitY=0.5;exitDx=0;exitDy=0;entryX=0;entryY=0.5;entryDx=0;entryDy=0;" edge="1" parent="1" source="nEgtMDDTX5-OxtlX7NQl-29" target="9nVttLgA1WMZ91mnEe1L-144">
          <mxGeometry relative="1" as="geometry">
            <Array as="points">
              <mxPoint x="10" y="725" />
              <mxPoint x="10" y="502" />
            </Array>
          </mxGeometry>
        </mxCell>
        <mxCell id="nEgtMDDTX5-OxtlX7NQl-29" value="CID" style="rounded=0;whiteSpace=wrap;html=1;" vertex="1" parent="1">
          <mxGeometry x="43" y="710" width="47" height="30" as="geometry" />
        </mxCell>
        <mxCell id="nEgtMDDTX5-OxtlX7NQl-35" style="edgeStyle=orthogonalEdgeStyle;rounded=0;orthogonalLoop=1;jettySize=auto;html=1;exitX=0.5;exitY=0;exitDx=0;exitDy=0;entryX=0.5;entryY=1;entryDx=0;entryDy=0;" edge="1" parent="1" source="nEgtMDDTX5-OxtlX7NQl-30" target="9nVttLgA1WMZ91mnEe1L-149">
          <mxGeometry relative="1" as="geometry">
            <Array as="points">
              <mxPoint x="125" y="680" />
              <mxPoint x="80" y="680" />
              <mxPoint x="80" y="648" />
              <mxPoint x="58" y="648" />
            </Array>
          </mxGeometry>
        </mxCell>
        <mxCell id="nEgtMDDTX5-OxtlX7NQl-30" value="CNumber" style="rounded=0;whiteSpace=wrap;html=1;" vertex="1" parent="1">
          <mxGeometry x="90" y="710" width="70" height="30" as="geometry" />
        </mxCell>
        <mxCell id="nEgtMDDTX5-OxtlX7NQl-33" style="edgeStyle=orthogonalEdgeStyle;rounded=0;orthogonalLoop=1;jettySize=auto;html=1;exitX=0.5;exitY=0;exitDx=0;exitDy=0;entryX=0.5;entryY=1;entryDx=0;entryDy=0;" edge="1" parent="1" source="nEgtMDDTX5-OxtlX7NQl-31" target="9nVttLgA1WMZ91mnEe1L-156">
          <mxGeometry relative="1" as="geometry" />
        </mxCell>
        <mxCell id="nEgtMDDTX5-OxtlX7NQl-31" value="&lt;u&gt;InvoiceNumber&lt;/u&gt;" style="rounded=0;whiteSpace=wrap;html=1;" vertex="1" parent="1">
          <mxGeometry x="160" y="710" width="90" height="30" as="geometry" />
        </mxCell>
        <mxCell id="nEgtMDDTX5-OxtlX7NQl-39" value="&lt;font face=&quot;Times New Roman&quot;&gt;&lt;b&gt;RESERVES&lt;/b&gt;&lt;/font&gt;" style="text;html=1;align=center;verticalAlign=middle;resizable=0;points=[];autosize=1;" vertex="1" parent="1">
          <mxGeometry x="34.5" y="690" width="80" height="20" as="geometry" />
        </mxCell>
      </root>
    </mxGraphModel>
  </diagram>
</mxfile>
